<svg viewBox="0 0 374 56" xmlns="http://www.w3.org/2000/svg" data-logo="logo">
                <g transform="translate(0, 7.5)" id="logogram" style="opacity: 1;"><path fill="#3A04FF" d="M37.4552 2.39882C38.3804 1.43634 39.6368 0.89563 40.9453 0.89563C46.8318 0.89563 52.3794 0.895633 57.8425 0.895644C68.8303 0.895667 74.3325 14.7158 66.5629 22.7986L49.639 40.4046C48.862 41.2129 47.5335 40.6405 47.5335 39.4974V23.9906L49.4894 21.9559C51.0433 20.3393 49.9427 17.5753 47.7452 17.5753H22.8667L37.4552 2.39882Z"></path><path fill="#3A04FF" d="M32.945 39.1672C32.0198 40.1296 30.7634 40.6703 29.455 40.6703C23.5684 40.6703 18.0208 40.6703 12.5577 40.6703C1.56991 40.6703 -3.93229 26.8501 3.83728 18.7674L20.7612 1.16133C21.5382 0.353051 22.8667 0.925506 22.8667 2.06858L22.8667 17.5753L20.9109 19.6101C19.3569 21.2266 20.4575 23.9907 22.6551 23.9907L47.5335 23.9906L32.945 39.1672Z"></path></g>
                <g transform="translate(75, 0)" id="logotype" style="opacity: 1;"><path d="M38.40 13.60L38.40 46L30.44 46L14.56 24.80L14.40 24.80L14.40 46L7.20 46L7.20 13.60L14.84 13.60L31.04 35.40L31.20 35.40L31.20 13.60L38.40 13.60ZM50.60 46.44L50.60 46.44Q46.28 46.44 43.86 44.38Q41.44 42.32 41.44 38.88L41.44 38.88Q41.44 35.32 43.98 33.38Q46.52 31.44 51.24 31.44L51.24 31.44L57.68 31.44L57.68 30.56Q57.68 27.28 53.52 27.28L53.52 27.28Q49.84 27.28 49.04 29.76L49.04 29.76L41.76 29.76Q42.60 25.68 45.56 23.60Q48.52 21.52 53.48 21.52L53.48 21.52Q58.96 21.52 61.84 23.94Q64.72 26.36 64.72 31L64.72 31L64.72 38.80L68.16 38.80L68.16 46L60.80 46L60.80 42L59.12 42Q57.88 44.16 55.84 45.30Q53.80 46.44 50.60 46.44ZM51.72 40.92L51.72 40.92Q53.48 40.92 54.82 40.32Q56.16 39.72 56.92 38.68Q57.68 37.64 57.68 36.36L57.68 36.36L57.68 36.24L51.56 36.24Q48.48 36.24 48.48 38.52L48.48 38.52Q48.48 39.68 49.34 40.30Q50.20 40.92 51.72 40.92ZM84.16 46L76.88 46L66.56 22L74.36 22L80.60 37.32L80.76 37.32L86.84 22L94.48 22L84.16 46ZM103.16 46L95.80 46L95.80 22L103.16 22L103.16 46ZM99.48 19.96L99.48 19.96Q97.84 19.96 96.68 18.80Q95.52 17.64 95.52 16L95.52 16Q95.52 14.36 96.68 13.20Q97.84 12.04 99.48 12.04L99.48 12.04Q101.12 12.04 102.28 13.20Q103.44 14.36 103.44 16L103.44 16Q103.44 17.64 102.28 18.80Q101.12 19.96 99.48 19.96ZM118.60 56.08L118.60 56.08Q113.04 56.08 109.58 53.86Q106.12 51.64 105.48 47.68L105.48 47.68L113.24 47.68Q114.16 50.32 118.32 50.32L118.32 50.32Q121.24 50.32 122.78 49Q124.32 47.68 124.32 45.24L124.32 45.24L124.32 42.24L124.12 42.24Q123.00 44.12 121.18 45.06Q119.36 46 116.76 46L116.76 46Q113.40 46 110.90 44.50Q108.40 43 107.02 40.24Q105.64 37.48 105.64 33.76L105.64 33.76Q105.64 28.16 108.74 24.84Q111.84 21.52 117.32 21.52L117.32 21.52Q120.36 21.52 122.54 22.70Q124.72 23.88 126.00 26L126.00 26L127.68 26L127.68 22L135.04 22L135.04 29.20L131.44 29.20L131.44 45.24Q131.44 50.44 128.12 53.26Q124.80 56.08 118.60 56.08ZM118.60 39.60L118.60 39.60Q121.20 39.60 122.64 38.20Q124.08 36.80 124.08 34.32L124.08 34.32L124.08 33.12Q124.08 30.68 122.62 29.30Q121.16 27.92 118.60 27.92L118.60 27.92Q115.92 27.92 114.46 29.46Q113.00 31 113.00 33.80L113.00 33.80Q113.00 36.60 114.46 38.10Q115.92 39.60 118.60 39.60ZM144.84 46.44L144.84 46.44Q140.52 46.44 138.10 44.38Q135.68 42.32 135.68 38.88L135.68 38.88Q135.68 35.32 138.22 33.38Q140.76 31.44 145.48 31.44L145.48 31.44L151.92 31.44L151.92 30.56Q151.92 27.28 147.76 27.28L147.76 27.28Q144.08 27.28 143.28 29.76L143.28 29.76L136.00 29.76Q136.84 25.68 139.80 23.60Q142.76 21.52 147.72 21.52L147.72 21.52Q153.20 21.52 156.08 23.94Q158.96 26.36 158.96 31L158.96 31L158.96 38.80L162.40 38.80L162.40 46L155.04 46L155.04 42L153.36 42Q152.12 44.16 150.08 45.30Q148.04 46.44 144.84 46.44ZM145.96 40.92L145.96 40.92Q147.72 40.92 149.06 40.32Q150.40 39.72 151.16 38.68Q151.92 37.64 151.92 36.36L151.92 36.36L151.92 36.24L145.80 36.24Q142.72 36.24 142.72 38.52L142.72 38.52Q142.72 39.68 143.58 40.30Q144.44 40.92 145.96 40.92ZM179.60 46L172.36 46Q169.56 46 168.02 44.58Q166.48 43.16 166.48 40.24L166.48 40.24L166.48 27.76L162.48 27.76L162.48 22L166.56 22L166.56 14.80L173.76 14.80L173.76 22L179.04 22L179.04 27.76L173.84 27.76L173.84 40.24L179.60 40.24L179.60 46ZM193.20 46.48L193.20 46.48Q189.24 46.48 186.32 44.94Q183.40 43.40 181.82 40.58Q180.24 37.76 180.24 33.92L180.24 33.92Q180.24 30.08 181.78 27.30Q183.32 24.52 186.18 23.02Q189.04 21.52 192.92 21.52L192.92 21.52Q196.76 21.52 199.52 22.98Q202.28 24.44 203.74 27.16Q205.20 29.88 205.20 33.68L205.20 33.68L205.20 36.04L187.32 36.04Q187.76 38.36 189.24 39.54Q190.72 40.72 193.16 40.72L193.16 40.72Q195.12 40.72 196.22 40.10Q197.32 39.48 197.80 38.12L197.80 38.12L205.16 38.12Q204.40 42.04 201.24 44.26Q198.08 46.48 193.20 46.48ZM187.44 31.24L187.44 31.24L198.16 31.24Q197.80 29.24 196.50 28.26Q195.20 27.28 192.96 27.28L192.96 27.28Q190.76 27.28 189.36 28.28Q187.96 29.28 187.44 31.24ZM219.20 37.12L206.56 37.12L206.56 30.88L219.20 30.88L219.20 37.12ZM231.92 20.16L231.92 46L224.56 46L224.56 20.16L214.40 20.16L214.40 13.60L242.08 13.60L242.08 20.16L231.92 20.16ZM249.92 46L242.72 46L242.72 29.20L239.12 29.20L239.12 22L246.48 22L246.48 26.80L248.16 26.80Q249.08 24.20 251.16 22.94Q253.24 21.68 255.80 21.68L255.80 21.68L257.84 21.68L257.84 28.08L255.48 28.08Q252.52 28.08 251.22 29.72Q249.92 31.36 249.92 34L249.92 34L249.92 46ZM267.24 46L259.88 46L259.88 22L267.24 22L267.24 46ZM263.56 19.96L263.56 19.96Q261.92 19.96 260.76 18.80Q259.60 17.64 259.60 16L259.60 16Q259.60 14.36 260.76 13.20Q261.92 12.04 263.56 12.04L263.56 12.04Q265.20 12.04 266.36 13.20Q267.52 14.36 267.52 16L267.52 16Q267.52 17.64 266.36 18.80Q265.20 19.96 263.56 19.96ZM280.08 55.60L272.72 55.60L272.72 29.20L269.12 29.20L269.12 22L276.48 22L276.48 26L278.16 26Q279.44 23.88 281.62 22.70Q283.80 21.52 286.84 21.52L286.84 21.52Q290.64 21.52 293.20 23.10Q295.76 24.68 297.08 27.48Q298.40 30.28 298.40 34L298.40 34Q298.40 37.72 297.12 40.54Q295.84 43.36 293.40 44.92Q290.96 46.48 287.48 46.48L287.48 46.48Q284.92 46.48 283.10 45.54Q281.28 44.60 280.24 42.92L280.24 42.92L280.08 42.92L280.08 55.60ZM285.44 40.08L285.44 40.08Q288.28 40.08 289.66 38.44Q291.04 36.80 291.04 34L291.04 34Q291.04 31.20 289.66 29.56Q288.28 27.92 285.44 27.92L285.44 27.92Q282.96 27.92 281.52 29.30Q280.08 30.68 280.08 33.12L280.08 33.12L280.08 34.88Q280.08 37.32 281.52 38.70Q282.96 40.08 285.44 40.08Z" fill="#000000"></path></g>
                
            </svg>